# This file uses centimeters as units for non-parametric coordinates.

mtllib mademodel.mtl
g default
v -0.339452 0.307229 0.219621
v 0.224558 0.307229 0.021987
v -0.339452 0.307229 -0.175647
v -0.138711 0.546511 0.000000
v -0.109266 0.074816 0.000000
vt 0.375000 0.125000
vt 0.625000 0.583333
vt 0.375000 0.625000
vt 0.375000 1.000000
vt 0.500000 0.375000
vt 0.500000 0.875000
vn -0.275753 0.765238 0.581696
vn 0.546283 0.835185 0.063572
vn 0.154198 0.987736 -0.024498
vn -0.301028 -0.795332 0.526146
vn 0.176113 -0.984030 -0.025866
vn 0.567159 -0.820922 0.066466
vn -0.339937 0.724945 -0.599081
vn -0.362209 -0.763173 -0.535137
s 1
g initialShadingGroup pCube1
f 1/1/1 2/2/2 4/5/3
s 2
f 1/4/4 5/6/5 2/2/6
s 1
f 1/1/1 4/5/3 3/3/7
f 3/3/7 4/5/3 2/2/2
s 2
f 3/3/8 5/6/5 1/4/4
f 3/3/8 2/2/6 5/6/5
